<svg width="69" height="47" viewBox="0 0 69 47" fill="none" xmlns="http://www.w3.org/2000/svg">
<path d="M67.5624 7.93655C67.1718 6.56304 66.4107 5.31953 65.3602 4.33822C64.28 3.32673 62.9561 2.60319 61.5134 2.23589C56.1142 0.833386 34.4827 0.833386 34.4827 0.833386C25.4648 0.732272 16.4491 1.177 7.48644 2.16505C6.04374 2.55949 4.72231 3.2992 3.63969 4.31839C2.57594 5.32705 1.80544 6.57089 1.40294 7.93372C0.436061 13.067 -0.0337171 18.2792 -5.66529e-05 23.5001C-0.0345567 28.7162 0.434068 33.9267 1.40294 39.0664C1.79682 40.4235 2.56444 41.6617 3.63107 42.6619C4.69769 43.6621 6.02594 44.3846 7.48644 44.7671C12.9576 46.1667 34.4827 46.1667 34.4827 46.1667C43.5121 46.268 52.5393 45.8232 61.5134 44.8351C62.9561 44.4678 64.28 43.7442 65.3602 42.7327C66.4103 41.7516 67.1705 40.5079 67.5596 39.1344C68.5517 34.0031 69.0341 28.7887 68.9999 23.5652C69.0746 18.3196 68.5928 13.0807 67.5624 7.93372V7.93655ZM27.6057 33.2014V13.8016L45.6032 23.5029L27.6057 33.2014Z" fill="#E9E9E9"/>
</svg>
