<svg width="58" height="57" viewBox="0 0 58 57" fill="none" xmlns="http://www.w3.org/2000/svg">
<path fill-rule="evenodd" clip-rule="evenodd" d="M21.7155 19.9121H32.2385V25.1538C33.7543 22.1391 37.6416 19.4305 43.4811 19.4305C54.6756 19.4305 57.3333 25.4315 57.3333 36.4418V56.8333H46V38.9493C46 32.6791 44.4841 29.1431 40.6251 29.1431C35.273 29.1431 33.0488 32.954 33.0488 38.9465V56.8333H21.7155V19.9121ZM2.28163 56.3516H13.615V19.4305H2.28163V56.3516ZM15.2385 7.39163C15.2389 8.34157 15.0505 9.28213 14.6842 10.1586C14.318 11.0351 13.7811 11.8301 13.105 12.4973C11.7348 13.8591 9.88009 14.6213 7.94829 14.6166C6.0199 14.6153 4.16951 13.855 2.79729 12.5001C2.12356 11.8306 1.58855 11.0348 1.22293 10.1582C0.857313 9.28157 0.668267 8.34143 0.666626 7.39163C0.666626 5.47346 1.43163 3.63746 2.80013 2.28313C4.17113 0.926408 6.02231 0.165778 7.95113 0.166627C9.88346 0.166627 11.7365 0.928793 13.105 2.28313C14.4706 3.63746 15.2385 5.47346 15.2385 7.39163Z" fill="#E9E9E9"/>
</svg>
