<svg width="54" height="55" viewBox="0 0 54 55" fill="none" xmlns="http://www.w3.org/2000/svg">
<path d="M27.0001 18.648C22.1259 18.648 18.1481 22.6258 18.1481 27.5C18.1481 32.3742 22.1259 36.3519 27.0001 36.3519C31.8743 36.3519 35.852 32.3742 35.852 27.5C35.852 22.6258 31.8743 18.648 27.0001 18.648ZM53.5493 27.5C53.5493 23.8344 53.5825 20.202 53.3766 16.543C53.1708 12.293 52.2012 8.52109 49.0934 5.41328C45.979 2.29883 42.2137 1.33594 37.9637 1.13008C34.2981 0.924216 30.6657 0.95742 27.0067 0.95742C23.3411 0.95742 19.7087 0.924216 16.0497 1.13008C11.7997 1.33594 8.02781 2.30547 4.91999 5.41328C1.80554 8.52773 0.842649 12.293 0.63679 16.543C0.43093 20.2086 0.464133 23.841 0.464133 27.5C0.464133 31.159 0.43093 34.798 0.63679 38.457C0.842649 42.707 1.81218 46.4789 4.91999 49.5867C8.03445 52.7012 11.7997 53.6641 16.0497 53.8699C19.7153 54.0758 23.3477 54.0426 27.0067 54.0426C30.6723 54.0426 34.3048 54.0758 37.9637 53.8699C42.2137 53.6641 45.9856 52.6945 49.0934 49.5867C52.2079 46.4723 53.1708 42.707 53.3766 38.457C53.5891 34.798 53.5493 31.1656 53.5493 27.5ZM27.0001 41.1199C19.463 41.1199 13.3801 35.0371 13.3801 27.5C13.3801 19.9629 19.463 13.8801 27.0001 13.8801C34.5372 13.8801 40.62 19.9629 40.62 27.5C40.62 35.0371 34.5372 41.1199 27.0001 41.1199ZM41.1778 16.5031C39.418 16.5031 37.9969 15.082 37.9969 13.3223C37.9969 11.5625 39.418 10.1414 41.1778 10.1414C42.9376 10.1414 44.3587 11.5625 44.3587 13.3223C44.3592 13.7401 44.2773 14.154 44.1176 14.5401C43.9579 14.9263 43.7237 15.2772 43.4282 15.5726C43.1327 15.8681 42.7818 16.1024 42.3957 16.2621C42.0095 16.4217 41.5957 16.5036 41.1778 16.5031Z" fill="#E9E9E9"/>
</svg>
